<svg xmlns="http://www.w3.org/2000/svg" viewBox="0 0 100 100">
  <defs>
    <linearGradient id="leafGradient" x1="0%" y1="0%" x2="100%" y2="100%">
      <stop offset="0%" style="stop-color:#4ade80;stop-opacity:1" />
      <stop offset="100%" style="stop-color:#16a34a;stop-opacity:1" />
    </linearGradient>
  </defs>
  <rect width="100" height="100" rx="20" fill="url(#leafGradient)"/>
  <path d="M50 20 C35 20, 25 30, 25 45 C25 60, 35 70, 50 80 C65 70, 75 60, 75 45 C75 30, 65 20, 50 20 Z" fill="white" opacity="0.9"/>
  <path d="M50 25 C40 25, 32 33, 32 43 C32 53, 40 61, 50 70 C60 61, 68 53, 68 43 C68 33, 60 25, 50 25 Z" fill="none" stroke="url(#leafGradient)" stroke-width="2"/>
  <line x1="50" y1="25" x2="50" y2="70" stroke="url(#leafGradient)" stroke-width="2" stroke-linecap="round"/>
</svg>

